<svg width="1600" height="1100" viewBox="0 0 1600 1100" fill="none" xmlns="http://www.w3.org/2000/svg">
  <rect width="1600" height="1100" fill="#F7F5EF"/>
  <rect x="104" y="96" width="1392" height="908" rx="62" fill="#FFFFFF"/>
  <rect x="164" y="156" width="1272" height="788" rx="46" fill="#F3F0E8"/>
  <path d="M204 793C372 611 535 584 688 700C819 799 953 772 1093 604C1218 454 1350 430 1420 500" stroke="#2F7D64" stroke-width="38" stroke-linecap="round"/>
  <circle cx="480" cy="360" r="132" fill="#E3B94D" fill-opacity="0.78"/>
  <circle cx="1148" cy="402" r="214" fill="#4F8FC8" fill-opacity="0.15"/>
  <rect x="260" y="660" width="365" height="58" rx="29" fill="#18212F" fill-opacity="0.15"/>
  <rect x="260" y="754" width="580" height="34" rx="17" fill="#18212F" fill-opacity="0.08"/>
  <rect x="260" y="810" width="468" height="34" rx="17" fill="#18212F" fill-opacity="0.08"/>
  <rect x="1000" y="684" width="250" height="180" rx="34" fill="#FFFFFF" fill-opacity="0.7"/>
  <rect x="1060" y="740" width="130" height="18" rx="9" fill="#18212F" fill-opacity="0.11"/>
  <rect x="1060" y="782" width="92" height="18" rx="9" fill="#18212F" fill-opacity="0.08"/>
</svg>