<svg width="1600" height="1100" viewBox="0 0 1600 1100" fill="none" xmlns="http://www.w3.org/2000/svg">
  <rect width="1600" height="1100" fill="#40167E"/>
  <path d="M-10 210C225 40 510 86 706 246C924 424 1188 398 1610 118V1100H-10V210Z" fill="#B6FF3B"/>
  <path d="M132 745C328 526 548 505 728 658C878 786 1058 746 1238 552C1364 416 1478 386 1600 450" stroke="#FF7A2D" stroke-width="48" stroke-linecap="round"/>
  <circle cx="472" cy="330" r="150" fill="#FFFFFF" fill-opacity="0.92"/>
  <circle cx="1112" cy="354" r="220" fill="#29B6F6" fill-opacity="0.34"/>
  <rect x="236" y="656" width="420" height="68" rx="34" fill="#20142F" fill-opacity="0.88"/>
  <rect x="236" y="770" width="620" height="42" rx="21" fill="#20142F" fill-opacity="0.30"/>
  <rect x="236" y="838" width="492" height="42" rx="21" fill="#20142F" fill-opacity="0.22"/>
  <rect x="1014" y="674" width="286" height="206" rx="44" fill="#FFFFFF" fill-opacity="0.82"/>
  <path d="M1102 770C1116 728 1164 728 1178 770C1190 804 1154 832 1140 850C1126 832 1090 804 1102 770Z" fill="#40167E"/>
</svg>